<?xml version="1.0" encoding="UTF-8"?><svg id="Layer_2" xmlns="http://www.w3.org/2000/svg" viewBox="0 0 24 24"><defs><style>.cls-1{fill:#fff;stroke-width:0px;}</style></defs><g id="Layer_7"><g id="iconInsta"><path class="cls-1" d="m16.66,24H7.34c-4.05,0-7.34-3.29-7.34-7.34V7.34C0,3.29,3.29,0,7.34,0h9.32c4.05,0,7.34,3.29,7.34,7.34v9.32c0,4.05-3.29,7.34-7.34,7.34ZM7.34,2.43c-2.71,0-4.91,2.2-4.91,4.91v9.32c0,2.71,2.2,4.91,4.91,4.91h9.32c2.71,0,4.91-2.2,4.91-4.91V7.34c0-2.71-2.2-4.91-4.91-4.91H7.34Z"/><path class="cls-1" d="m12,17.92c-3.27,0-5.92-2.66-5.92-5.92s2.66-5.92,5.92-5.92,5.92,2.66,5.92,5.92-2.66,5.92-5.92,5.92Zm0-9.42c-1.93,0-3.49,1.57-3.49,3.49s1.57,3.49,3.49,3.49,3.49-1.57,3.49-3.49-1.57-3.49-3.49-3.49Z"/><path class="cls-1" d="m19.34,5.16c0,.78-.64,1.42-1.42,1.42s-1.41-.64-1.41-1.42.63-1.41,1.41-1.41,1.42.63,1.42,1.41Z"/></g></g></svg>